Coordinates
version=1
nRows=12
nColumns=34
inDegrees=yes

Units are S.I. units (second, meters, Newtons, ...)
If the header above contains a line with 'inDegrees', this indicates whether rotational values are in degrees (yes) or radians (no).

endheader
time	pelvis_tilt	pelvis_list	pelvis_rotation	pelvis_tx	pelvis_ty	pelvis_tz	hip_flexion_r	hip_adduction_r	hip_rotation_r	knee_angle_r	ankle_angle_r	subtalar_angle_r	mtp_angle_r	hip_flexion_l	hip_adduction_l	hip_rotation_l	knee_angle_l	ankle_angle_l	subtalar_angle_l	mtp_angle_l	lumbar_extension	lumbar_bending	lumbar_rotation	arm_flex_r	arm_add_r	arm_rot_r	elbow_flex_r	pro_sup_r	arm_flex_l	arm_add_l	arm_rot_l	elbow_flex_l	pro_sup_l
      2.11666670	     -3.24470218	      2.54061991	     -9.27462394	     -0.03117739	      1.20322238	     -0.09176540	     -1.95268567	     -0.04238803	     -0.43264513	      0.00000000	      7.27338102	      5.45643677	      0.00000000	     -1.85873610	      4.60153809	     -9.88824139	      0.00000000	      0.15046613	      0.65979563	      0.00000000	      1.50779464	     -0.97883131	     -1.56793726	     10.36397746	     -5.36608427	     13.53167813	     28.47025821	     72.49259203	      8.05852993	    -12.05125706	     12.69848732	     26.27642376	     64.78905345
      2.13333330	     -3.18856922	      2.45183670	     -9.49459844	     -0.02912812	      1.20238003	     -0.09027232	     -2.08463369	      0.15904499	     -0.21334379	      0.00000000	      7.05049633	      5.24010875	      0.00000000	     -2.01404191	      4.40765043	     -9.70586913	      0.00000000	      0.49057320	      0.59781515	      0.00000000	      1.28349151	     -1.01993346	     -1.12627799	     10.51764927	     -6.06785020	     16.26369472	     32.75751882	     72.75514284	      9.08353560	    -12.06278794	     13.53708208	     27.59531640	     64.22554285
      2.15000000	     -3.37407451	      2.44540602	     -9.65683350	     -0.03130068	      1.19998046	     -0.08973164	     -1.90320819	      0.29877721	     -0.18559357	      0.00000000	      7.19148702	      5.21296118	      0.00000000	     -1.84712708	      4.28499439	     -9.71284045	      0.00000000	      0.55907669	      0.56653341	      0.00000000	      1.57328431	     -1.08811898	     -1.11233780	     11.59275277	     -5.41836841	     16.48280085	     33.34385819	     72.77242657	     10.21875713	    -11.89367959	     13.59353960	     27.98115813	     64.18813721
      2.16666670	     -3.25257526	      2.42123875	     -9.81927537	     -0.03224508	      1.20518409	     -0.08959175	     -2.04637865	      0.38271213	      0.25019015	      0.00000000	      7.01428887	      4.60907298	      0.00000000	     -2.01492252	      4.20769356	     -9.57033057	      0.00000000	      0.29757353	      0.07073297	      0.00000000	      1.21553721	     -1.15476090	     -0.85850464	     12.14721505	     -6.19552210	     20.04879957	     37.50519619	     73.15935392	     11.45691838	    -12.00623133	     15.35008796	     29.20019362	     63.71460007
      2.18333330	     -3.41270723	      2.45803555	     -9.90399195	     -0.02984573	      1.20644233	     -0.08857083	     -1.92421525	      0.43064206	      0.30886516	      0.00000000	      6.94690201	      4.68567496	      0.00000000	     -1.91547644	      4.15123191	     -9.50266765	      0.00000000	      0.30591130	      0.10153713	      0.00000000	      1.62438846	     -1.30087035	     -0.85758210	     13.14780935	     -5.36463028	     20.29493068	     38.13572165	     73.18842431	     12.42865640	    -11.64909593	     15.49072301	     29.59762927	     63.69961094
      2.20000000	     -3.43209480	      2.51195962	    -10.07787856	     -0.03197187	      1.20442233	     -0.08707209	     -1.90163969	      0.44202705	      0.51302903	      0.00000000	      6.72299575	      4.45494136	      0.00000000	     -1.92423305	      4.15201598	     -9.46661336	      0.00000000	      0.08815644	     -0.25785842	      0.00000000	      1.58629805	     -1.44458859	     -0.74298106	     13.99646490	     -6.40721304	     25.32823013	     42.44944831	     73.70517056	     13.51974996	    -12.57350134	     20.37445540	     31.80861879	     62.96985217
      2.21666670	     -3.64184783	      2.61849313	     -9.91815360	     -0.03468763	      1.20124351	     -0.08911413	     -1.67848646	      0.39273614	      0.59398954	      0.00000000	      6.53632487	      4.21250072	      0.00000000	     -1.64712312	      4.20438742	     -9.07807642	      0.00000000	      0.13772517	     -0.30892736	      0.00000000	      1.97932101	     -1.54520459	     -1.43265077	     14.96126338	     -6.10698101	     26.68378223	     45.56486167	     73.93725876	     14.45344474	    -12.77037470	     21.64249077	     32.86240884	     62.80991411
      2.23333330	     -3.71828827	      2.67951461	    -10.06334312	     -0.03676635	      1.20419966	     -0.08995154	     -1.49876761	      0.33888582	      0.77603075	      0.00000000	      6.19788699	      4.05049041	      0.00000000	     -1.47956232	      4.25242776	     -9.21120289	      0.00000000	     -0.45174357	     -0.65307995	      0.00000000	      2.01703318	     -1.63557674	     -0.95896435	     16.03315838	     -6.75125449	     29.38213434	     49.54302264	     74.49568230	     15.86004976	    -12.96986694	     24.13154507	     35.34528063	     62.87283658
      2.25000000	     -3.84857805	      2.72852193	     -9.85079285	     -0.03632582	      1.20875376	     -0.09136944	     -1.29854862	      0.28047254	      0.66177081	      0.00000000	      6.07073788	      3.70846133	      0.00000000	     -1.26917845	      4.30676398	     -8.81769404	      0.00000000	     -0.39506181	     -0.79392445	      0.00000000	      2.19112350	     -1.50786597	     -1.61043047	     17.47211665	     -6.88295674	     31.68284877	     53.37685153	     75.07749658	     16.84747934	    -13.40131227	     27.14304773	     37.18662472	     63.06014120
      2.26666670	     -3.92933809	      2.78009264	     -9.98597561	     -0.03483413	      1.20970338	     -0.09128785	     -1.08451869	      0.19769615	      0.76587821	      0.00000000	      6.08152323	      3.72141097	      0.00000000	     -1.13274398	      4.39221760	     -8.96580894	      0.00000000	     -0.69084829	     -1.14848548	      0.00000000	      2.36790184	     -1.51447705	     -0.96953337	     18.78386873	     -7.71633818	     34.19627919	     56.94585404	     75.82754428	     18.26851826	    -13.58835742	     30.59032778	     40.11518873	     63.26647132
      2.28333330	     -4.06288372	      2.88323727	     -9.91557161	     -0.03854557	      1.21735226	     -0.08983760	     -0.80193147	      0.10621801	      0.74903008	      0.00000000	      5.79613429	      3.83167850	      0.00000000	     -0.85925597	      4.47216294	     -9.01735609	      0.00000000	     -0.90103947	     -1.09107918	      0.00000000	      2.75532078	     -1.56510244	     -0.96415462	     20.26456448	     -6.74845844	     34.27269406	     57.69308285	     75.88143005	     19.44151397	    -12.77837209	     30.80707382	     40.72821113	     63.29326563
      2.30000000	     -4.11961745	      2.95051662	     -9.95560856	     -0.04127949	      1.21076228	     -0.09069293	     -0.53788769	      0.00042756	      0.81467292	      0.00000000	      5.32798212	      3.62092988	      0.00000000	     -0.63984720	      4.58069937	     -9.02127777	      0.00000000	     -1.54951450	     -1.62769612	      0.00000000	      2.52366263	     -1.38382185	     -0.42140030	     21.95550615	     -8.08646724	     37.45896475	     62.78955296	     76.86315574	     21.05821333	    -13.61375469	     34.79016675	     45.24060213	     63.78308192
